<svg xmlns="http://www.w3.org/2000/svg" viewBox="0 0 200 200">
<!-- TACT shape: flower_simple | category: nature | license: CC0 | source: handcrafted -->
<g fill="none" stroke="#000000" stroke-width="6" stroke-linecap="round" stroke-linejoin="round">
  <circle cx="100" cy="74" r="16"/>
  <ellipse cx="100" cy="40" rx="13" ry="18"/>
  <ellipse cx="131" cy="57" rx="13" ry="18" transform="rotate(60 131 57)"/>
  <ellipse cx="131" cy="91" rx="13" ry="18" transform="rotate(120 131 91)"/>
  <ellipse cx="100" cy="108" rx="13" ry="18"/>
  <ellipse cx="69" cy="91" rx="13" ry="18" transform="rotate(60 69 91)"/>
  <ellipse cx="69" cy="57" rx="13" ry="18" transform="rotate(120 69 57)"/>
  <path d="M 100,126 L 100,176"/>
  <path d="M 100,150 Q 76,148 70,132 Q 92,132 100,146" stroke-width="4"/>
  <path d="M 100,160 Q 124,158 130,142 Q 108,142 100,156" stroke-width="4"/>
</g>
</svg>
