<svg xmlns="http://www.w3.org/2000/svg" viewBox="0 0 200 200">
<!-- TACT shape: flower_simple | category: nature | license: CC0 | source: parametric -->
<g fill="none" stroke="#000000" stroke-width="6" stroke-linecap="round" stroke-linejoin="round">
  <line x1="100" y1="148" x2="100" y2="186"/>
  <path d="M 100,166 Q 80,156 72,142 Q 88,148 100,158"/>
  <path d="M 100,166 Q 120,156 128,142 Q 112,148 100,158"/>
  <ellipse cx="138.0" cy="100.0" rx="14" ry="24" transform="rotate(0,138.0,100.0)"/>
  <ellipse cx="119.0" cy="132.9" rx="14" ry="24" transform="rotate(60,119.0,132.9)"/>
  <ellipse cx="81.0" cy="132.9" rx="14" ry="24" transform="rotate(120,81.0,132.9)"/>
  <ellipse cx="62.0" cy="100.0" rx="14" ry="24" transform="rotate(180,62.0,100.0)"/>
  <ellipse cx="81.0" cy="67.1" rx="14" ry="24" transform="rotate(240,81.0,67.1)"/>
  <ellipse cx="119.0" cy="67.1" rx="14" ry="24" transform="rotate(300,119.0,67.1)"/>
  <circle cx="100" cy="100" r="18"/>
</g>
</svg>
