<svg xmlns="http://www.w3.org/2000/svg" viewBox="0 0 200 200">
<!-- TACT shape: fairy | category: people | license: CC0 | source: handcrafted -->
<g fill="none" stroke="#000000" stroke-width="6" stroke-linecap="round" stroke-linejoin="round">
  <circle cx="100" cy="42" r="17"/>
  <circle cx="94" cy="39" r="3.5" fill="#000000"/>
  <circle cx="106" cy="39" r="3.5" fill="#000000"/>
  <path d="M 93,49 Q 100,54 107,49" stroke-width="4"/>
  <path d="M 84,66 Q 56,44 36,58 Q 22,70 40,88 Q 58,104 82,92" stroke-width="4"/>
  <path d="M 116,66 Q 144,44 164,58 Q 178,70 160,88 Q 142,104 118,92" stroke-width="4"/>
  <path d="M 88,62 L 112,62 Q 120,66 124,82 L 134,144 L 66,144 L 76,82 Q 80,66 88,62 Z"/>
  <path d="M 80,86 L 62,104" stroke-width="4"/>
  <path d="M 120,86 L 140,98" stroke-width="4"/>
  <path d="M 146,96 L 158,72" stroke-width="4"/>
  <path d="M 158,64 L 160,56 L 164,64 L 156,60 L 166,60 Z" stroke-width="3"/>
  <path d="M 84,144 L 84,168 M 116,144 L 116,168" stroke-width="4"/>
</g>
</svg>
