<svg xmlns="http://www.w3.org/2000/svg" viewBox="0 0 200 200">
<!-- TACT shape: fairy | category: people | license: CC0 | source: handcrafted -->
<g fill="none" stroke="#000000" stroke-width="6" stroke-linecap="round" stroke-linejoin="round">
  <path d="M 78,96 Q 36,72 40,110 Q 44,142 80,124 Z"/>
  <path d="M 122,96 Q 164,72 160,110 Q 156,142 120,124 Z"/>
  <circle cx="100" cy="56" r="20"/>
  <circle cx="94" cy="54" r="3" fill="#000000"/>
  <circle cx="106" cy="54" r="3" fill="#000000"/>
  <path d="M 93,64 Q 100,69 107,64"/>
  <path d="M 86,78 Q 100,86 114,78 L 128,138 Q 100,150 72,138 Z"/>
  <path d="M 86,82 L 60,108 M 114,82 L 150,70"/>
  <path d="M 150,70 l 3,9 l 9,3 l -9,3 l -3,9 l -3,-9 l -9,-3 l 9,-3 Z" stroke-width="4"/>
</g>
</svg>
