<svg xmlns="http://www.w3.org/2000/svg" viewBox="0 0 200 200">
<!-- TACT shape: fairy | category: people | license: CC0 | source: handcrafted -->
<g fill="none" stroke="#000000" stroke-width="6" stroke-linecap="round" stroke-linejoin="round">
  <circle cx="100" cy="40" r="15"/>
  <circle cx="94" cy="38" r="3" fill="#000000"/>
  <circle cx="106" cy="38" r="3" fill="#000000"/>
  <path d="M 96,46 Q 100,50 104,46" stroke-width="3"/>
  <path d="M 90,56 L 76,108 L 124,108 L 110,56 Z"/>
  <path d="M 84,110 L 84,146 M 116,110 L 116,146" />
  <path d="M 76,148 L 92,148 M 108,148 L 124,148" stroke-width="5"/>
  <path d="M 84,66 Q 58,50 44,60 Q 34,68 44,80 Q 56,92 80,84 Q 88,80 84,66 Z"/>
  <path d="M 116,66 Q 142,50 156,60 Q 166,68 156,80 Q 144,92 120,84 Q 112,80 116,66 Z"/>
  <path d="M 116,70 L 144,50" stroke-width="4"/>
  <path d="M 148,38 L 152,46 L 160,48 L 152,52 L 148,60 L 144,52 L 136,50 L 144,46 Z" stroke-width="3"/>
</g>
</svg>
