<svg xmlns="http://www.w3.org/2000/svg" viewBox="0 0 200 200">
<!-- TACT shape: ghost | category: people | license: CC0 | source: handcrafted -->
<g fill="none" stroke="#000000" stroke-width="6" stroke-linecap="round" stroke-linejoin="round">
  <path d="M 50,176 L 50,96 Q 50,40 100,40 Q 150,40 150,96 L 150,176 Q 138,160 126,176 Q 114,160 100,176 Q 86,160 74,176 Q 62,160 50,176 Z"/>
  <ellipse cx="82" cy="92" rx="6" ry="9" fill="#000000"/>
  <ellipse cx="118" cy="92" rx="6" ry="9" fill="#000000"/>
  <path d="M 88,118 Q 100,128 112,118"/>
  <path d="M 40,108 Q 28,104 30,120 Q 34,130 46,124"/>
  <path d="M 160,108 Q 172,104 170,120 Q 166,130 154,124"/>
</g>
</svg>
