<svg xmlns="http://www.w3.org/2000/svg" viewBox="0 0 200 200">
<!-- TACT shape: king | category: people | license: CC0 | source: handcrafted -->
<g fill="none" stroke="#000000" stroke-width="6" stroke-linecap="round" stroke-linejoin="round">
  <path d="M 82,30 L 82,12 L 92,22 L 100,8 L 108,22 L 118,12 L 118,30 Z"/>
  <circle cx="100" cy="48" r="18"/>
  <circle cx="93" cy="45" r="3.5" fill="#000000"/>
  <circle cx="107" cy="45" r="3.5" fill="#000000"/>
  <path d="M 92,55 Q 100,61 108,55" stroke-width="4"/>
  <path d="M 84,68 L 116,68 Q 128,72 132,90 L 144,162 L 56,162 L 68,90 Q 72,72 84,68 Z"/>
  <path d="M 74,92 L 56,116" stroke-width="4"/>
  <path d="M 126,92 L 144,112" stroke-width="4"/>
  <path d="M 148,112 L 148,66" stroke-width="4"/>
  <circle cx="148" cy="58" r="8" stroke-width="4"/>
  <circle cx="100" cy="92" r="4" fill="#000000"/>
  <circle cx="100" cy="112" r="4" fill="#000000"/>
</g>
</svg>
