<svg xmlns="http://www.w3.org/2000/svg" viewBox="0 0 200 200">
<!-- TACT shape: king | category: people | license: CC0 | source: handcrafted -->
<g fill="none" stroke="#000000" stroke-width="6" stroke-linecap="round" stroke-linejoin="round">
  <path d="M 74,42 L 70,16 L 86,32 L 100,12 L 114,32 L 130,16 L 126,42 Z"/>
  <circle cx="100" cy="44" r="3.5" fill="#000000"/>
  <circle cx="100" cy="70" r="24"/>
  <circle cx="92" cy="68" r="3" fill="#000000"/>
  <circle cx="108" cy="68" r="3" fill="#000000"/>
  <path d="M 90,78 Q 100,86 110,78"/>
  <path d="M 84,90 L 76,116 Q 100,122 124,116 L 116,90 Q 100,98 84,90 Z"/>
  <path d="M 76,116 L 70,180 Q 100,190 130,180 L 124,116"/>
  <path d="M 84,92 L 60,150"/>
  <path d="M 116,92 L 140,150"/>
</g>
</svg>
