<svg xmlns="http://www.w3.org/2000/svg" viewBox="0 0 200 200">
<!-- TACT shape: knight | category: people | license: CC0 | source: handcrafted -->
<g fill="none" stroke="#000000" stroke-width="6" stroke-linecap="round" stroke-linejoin="round">
  <path d="M 96,20 Q 78,28 80,52 M 96,20 Q 108,24 108,40"/>
  <path d="M 78,48 Q 78,80 100,84 Q 122,80 122,48 Q 122,34 100,34 Q 78,34 78,48 Z"/>
  <line x1="100" y1="44" x2="100" y2="76"/>
  <path d="M 86,84 L 80,140 Q 100,148 120,140 L 114,84"/>
  <path d="M 82,100 Q 64,108 60,146"/>
  <path d="M 118,100 L 142,96"/>
  <path d="M 142,40 L 150,96 L 134,96 Z"/>
  <path d="M 142,40 L 142,30"/>
  <path d="M 56,118 Q 36,122 36,150 Q 38,176 56,178 Q 74,176 76,150 Q 76,122 56,118 Z"/>
  <line x1="56" y1="120" x2="56" y2="176"/>
  <path d="M 80,150 L 76,184 M 116,150 L 122,184"/>
</g>
</svg>
