<svg xmlns="http://www.w3.org/2000/svg" viewBox="0 0 200 200">
<!-- TACT shape: mermaid | category: people | license: CC0 | source: handcrafted -->
<g fill="none" stroke="#000000" stroke-width="6" stroke-linecap="round" stroke-linejoin="round">
  <circle cx="100" cy="36" r="16"/>
  <circle cx="94" cy="33" r="3.5" fill="#000000"/>
  <circle cx="106" cy="33" r="3.5" fill="#000000"/>
  <path d="M 93,43 Q 100,48 107,43" stroke-width="4"/>
  <path d="M 86,28 Q 76,44 80,66" stroke-width="4"/>
  <path d="M 114,28 Q 124,44 120,66" stroke-width="4"/>
  <path d="M 90,54 L 110,54 Q 116,58 114,80 Q 113,92 108,98 L 92,98 Q 86,80 90,54 Z"/>
  <path d="M 92,98 Q 78,126 90,148 Q 98,162 114,164 L 104,182 L 124,174 L 126,190 L 138,166 Q 122,160 116,144 Q 110,126 108,98"/>
  <path d="M 86,72 L 70,88" stroke-width="4"/>
  <path d="M 114,72 L 130,86" stroke-width="4"/>
</g>
</svg>
