<svg xmlns="http://www.w3.org/2000/svg" viewBox="0 0 200 200">
<!-- TACT shape: mermaid | category: people | license: CC0 | source: handcrafted -->
<g fill="none" stroke="#000000" stroke-width="6" stroke-linecap="round" stroke-linejoin="round">
  <circle cx="100" cy="44" r="20"/>
  <path d="M 80,40 Q 66,60 72,96 M 120,40 Q 134,60 128,96"/>
  <circle cx="94" cy="42" r="3" fill="#000000"/>
  <circle cx="106" cy="42" r="3" fill="#000000"/>
  <path d="M 93,52 Q 100,57 107,52"/>
  <path d="M 86,64 Q 100,72 114,64 Q 124,90 116,110 Q 132,120 124,150 Q 116,176 100,182 Q 84,176 76,150 Q 68,120 84,110 Q 76,90 86,64 Z"/>
  <path d="M 100,182 Q 78,196 60,190 Q 78,178 84,166"/>
  <path d="M 100,182 Q 122,196 140,190 Q 122,178 116,166"/>
  <path d="M 84,128 Q 100,134 116,128 M 80,150 Q 100,158 120,150"/>
</g>
</svg>
