<svg xmlns="http://www.w3.org/2000/svg" viewBox="0 0 200 200">
<!-- TACT shape: mermaid | category: people | license: CC0 | source: handcrafted -->
<g fill="none" stroke="#000000" stroke-width="6" stroke-linecap="round" stroke-linejoin="round">
  <circle cx="88" cy="40" r="17"/>
  <path d="M 74,30 Q 64,42 68,62 Q 74,52 78,50 M 102,30 Q 112,42 108,62 Q 102,52 98,50" stroke-width="5"/>
  <circle cx="82" cy="38" r="3" fill="#000000"/>
  <circle cx="94" cy="38" r="3" fill="#000000"/>
  <path d="M 84,46 Q 88,50 92,46" stroke-width="3"/>
  <path d="M 76,60 Q 70,80 76,98 Q 82,114 98,124 Q 114,132 122,142 L 134,128 Q 140,138 138,150 Q 136,160 126,164 Q 122,152 112,144 Q 96,134 84,120 Q 72,106 70,88 Q 69,72 74,60 Z"/>
  <path d="M 134,128 Q 148,124 158,128 Q 152,138 140,142" stroke-width="5"/>
  <path d="M 76,66 Q 60,70 52,82 Q 62,86 72,82 M 92,66 Q 108,70 116,82 Q 106,86 96,82" stroke-width="5"/>
  <path d="M 84,84 Q 92,88 98,84 M 92,100 Q 100,104 106,100" stroke-width="3.5"/>
</g>
</svg>
