<svg xmlns="http://www.w3.org/2000/svg" viewBox="0 0 200 200">
<!-- TACT shape: person_child | category: people | license: CC0 | source: handcrafted -->
<g fill="none" stroke="#000000" stroke-width="6" stroke-linecap="round" stroke-linejoin="round">
  <circle cx="100" cy="56" r="26"/>
  <circle cx="91" cy="52" r="4" fill="#000000"/>
  <circle cx="109" cy="52" r="4" fill="#000000"/>
  <path d="M 90,64 Q 100,72 110,64" stroke-width="4"/>
  <path d="M 86,86 Q 76,86 71,96 L 62,110 Q 58,118 66,122 Q 72,125 76,118 L 82,108 L 82,130 L 74,158 Q 72,168 82,170 Q 90,172 92,164 L 98,140 L 102,140 L 108,164 Q 110,172 118,170 Q 128,168 126,158 L 118,130 L 118,108 L 124,118 Q 128,125 134,122 Q 142,118 138,110 L 129,96 Q 124,86 114,86 Z"/>
  <path d="M 84,32 Q 100,22 116,32" stroke-width="4"/>
</g>
</svg>
