<svg xmlns="http://www.w3.org/2000/svg" viewBox="0 0 200 200">
<!-- TACT shape: person_standing | category: people | license: CC0 | source: handcrafted -->
<g fill="none" stroke="#000000" stroke-width="6" stroke-linecap="round" stroke-linejoin="round">
  <circle cx="100" cy="40" r="20"/>
  <circle cx="93" cy="37" r="3.5" fill="#000000"/>
  <circle cx="107" cy="37" r="3.5" fill="#000000"/>
  <path d="M 92,48 Q 100,54 108,48" stroke-width="4"/>
  <path d="M 84,64 Q 72,64 66,76 L 54,98 Q 50,106 58,110 Q 64,113 68,106 L 78,90 L 78,122 L 66,162 Q 64,172 74,174 Q 82,176 84,168 L 96,132 L 104,132 L 116,168 Q 118,176 126,174 Q 136,172 134,162 L 122,122 L 122,90 L 132,106 Q 136,113 142,110 Q 150,106 146,98 L 134,76 Q 128,64 116,64 Z"/>
</g>
</svg>
