<svg xmlns="http://www.w3.org/2000/svg" viewBox="0 0 200 200">
<!-- TACT shape: queen | category: people | license: CC0 | source: handcrafted -->
<g fill="none" stroke="#000000" stroke-width="6" stroke-linecap="round" stroke-linejoin="round">
  <path d="M 80,28 L 78,10 L 90,20 L 100,6 L 110,20 L 122,10 L 120,28 Z"/>
  <circle cx="100" cy="46" r="18"/>
  <circle cx="93" cy="43" r="3.5" fill="#000000"/>
  <circle cx="107" cy="43" r="3.5" fill="#000000"/>
  <path d="M 92,53 Q 100,59 108,53" stroke-width="4"/>
  <path d="M 82,42 Q 74,58 78,76 M 118,42 Q 126,58 122,76" stroke-width="4"/>
  <path d="M 86,66 L 114,66 Q 124,70 128,88 L 146,162 L 54,162 L 72,88 Q 76,70 86,66 Z"/>
  <path d="M 76,96 L 60,120" stroke-width="4"/>
  <path d="M 124,96 L 142,118" stroke-width="4"/>
  <path d="M 66,140 Q 100,132 134,140" stroke-width="4"/>
</g>
</svg>
