<svg xmlns="http://www.w3.org/2000/svg" viewBox="0 0 200 200">
<!-- TACT shape: queen | category: people | license: CC0 | source: handcrafted -->
<g fill="none" stroke="#000000" stroke-width="6" stroke-linecap="round" stroke-linejoin="round">
  <path d="M 80,40 L 76,18 L 90,30 L 100,16 L 110,30 L 124,18 L 120,40 Z"/>
  <circle cx="100" cy="66" r="23"/>
  <path d="M 78,60 Q 70,90 76,120 M 122,60 Q 130,90 124,120"/>
  <circle cx="93" cy="64" r="3" fill="#000000"/>
  <circle cx="107" cy="64" r="3" fill="#000000"/>
  <path d="M 92,74 Q 100,80 108,74"/>
  <path d="M 88,90 Q 100,98 112,90 L 146,178 Q 100,192 54,178 Z"/>
  <path d="M 88,94 L 66,134 M 112,94 L 134,134"/>
  <path d="M 74,150 Q 100,160 126,150"/>
</g>
</svg>
