<svg xmlns="http://www.w3.org/2000/svg" viewBox="0 0 200 200">
<!-- TACT shape: wizard | category: people | license: CC0 | source: handcrafted -->
<g fill="none" stroke="#000000" stroke-width="6" stroke-linecap="round" stroke-linejoin="round">
  <path d="M 100,10 L 70,72 Q 100,64 130,72 Z"/>
  <path d="M 96,34 l 2,6 l 6,2 l -6,2 l -2,6 l -2,-6 l -6,-2 l 6,-2 Z" stroke-width="3"/>
  <circle cx="100" cy="92" r="20"/>
  <circle cx="93" cy="90" r="3" fill="#000000"/>
  <circle cx="107" cy="90" r="3" fill="#000000"/>
  <path d="M 84,100 Q 92,118 100,150 Q 108,118 116,100"/>
  <path d="M 86,108 Q 76,140 78,186 Q 100,194 122,186 Q 124,140 114,108"/>
  <path d="M 86,116 L 64,150"/>
  <path d="M 114,116 L 140,108"/>
  <line x1="140" y1="60" x2="140" y2="150"/>
  <circle cx="140" cy="52" r="8"/>
</g>
</svg>
