<svg xmlns="http://www.w3.org/2000/svg" viewBox="0 0 200 200">
<!-- TACT shape: book | category: objects | license: CC0 | source: parametric -->
<g fill="none" stroke="#000000" stroke-width="6" stroke-linecap="round" stroke-linejoin="round">
  <path d="M 20,56 Q 20,44 32,44 L 96,44 L 96,164 L 32,164 Q 20,164 20,152 Z"/>
  <path d="M 180,56 Q 180,44 168,44 L 104,44 L 104,164 L 168,164 Q 180,164 180,152 Z"/>
  <path d="M 96,44 Q 100,36 104,44"/>
  <path d="M 96,164 Q 100,172 104,164"/>
  <line x1="96" y1="44" x2="96" y2="164"/>
  <line x1="104" y1="44" x2="104" y2="164"/>
  <line x1="32" y1="68" x2="88" y2="68" stroke-width="4"/>
  <line x1="32" y1="88" x2="88" y2="88" stroke-width="4"/>
  <line x1="32" y1="108" x2="88" y2="108" stroke-width="4"/>
  <line x1="32" y1="128" x2="88" y2="128" stroke-width="4"/>
  <line x1="32" y1="148" x2="88" y2="148" stroke-width="4"/>
  <line x1="112" y1="68" x2="168" y2="68" stroke-width="4"/>
  <line x1="112" y1="88" x2="168" y2="88" stroke-width="4"/>
  <line x1="112" y1="108" x2="168" y2="108" stroke-width="4"/>
  <line x1="112" y1="128" x2="168" y2="128" stroke-width="4"/>
  <line x1="112" y1="148" x2="168" y2="148" stroke-width="4"/>
</g>
</svg>
