<svg xmlns="http://www.w3.org/2000/svg" viewBox="0 0 200 200">
<!-- TACT shape: teddy_bear | category: objects | license: CC0 | source: handcrafted -->
<g fill="none" stroke="#000000" stroke-width="6" stroke-linecap="round" stroke-linejoin="round">
  <circle cx="68" cy="48" r="18"/>
  <circle cx="132" cy="48" r="18"/>
  <circle cx="100" cy="74" r="34"/>
  <circle cx="90" cy="70" r="3.5" fill="#000000"/>
  <circle cx="110" cy="70" r="3.5" fill="#000000"/>
  <circle cx="100" cy="82" r="6"/>
  <path d="M 100,88 Q 92,96 86,90 M 100,88 Q 108,96 114,90"/>
  <path d="M 70,116 Q 60,150 78,170 Q 100,180 122,170 Q 140,150 130,116"/>
  <ellipse cx="56" cy="120" rx="16" ry="22" transform="rotate(-20,56,120)"/>
  <ellipse cx="144" cy="120" rx="16" ry="22" transform="rotate(20,144,120)"/>
  <ellipse cx="80" cy="178" rx="18" ry="14"/>
  <ellipse cx="120" cy="178" rx="18" ry="14"/>
  <path d="M 86,140 Q 100,150 114,140"/>
</g>
</svg>
