<svg xmlns="http://www.w3.org/2000/svg" viewBox="0 0 200 200">
<!-- TACT shape: umbrella | category: objects | license: CC0 | source: parametric -->
<g fill="none" stroke="#000000" stroke-width="6" stroke-linecap="round" stroke-linejoin="round">
  <path d="M 16,112 Q 18,50 100,38 Q 182,50 184,112"/>
  <path d="M 14,112 Q 26,128 38,112"/>
  <path d="M 38,112 Q 50,128 62,112"/>
  <path d="M 62,112 Q 74,128 86,112"/>
  <path d="M 86,112 Q 98,128 110,112"/>
  <path d="M 110,112 Q 122,128 134,112"/>
  <path d="M 134,112 Q 146,128 158,112"/>
  <path d="M 158,112 Q 170,128 182,112"/>
  <line x1="100" y1="110" x2="100" y2="178"/>
  <path d="M 100,178 Q 100,196 84,196 Q 68,196 68,180"/>
</g>
</svg>
