<svg xmlns="http://www.w3.org/2000/svg" viewBox="0 0 200 200">
<!-- TACT shape: bee | category: animals | license: CC0 | source: handcrafted -->
<g fill="none" stroke="#000000" stroke-width="6" stroke-linecap="round" stroke-linejoin="round">
  <path d="M 52,104 Q 52,76 84,70 Q 128,64 148,84 Q 158,94 150,110 Q 134,134 96,134 Q 60,132 52,104 Z"/>
  <path d="M 90,70 L 84,132" stroke-width="4"/>
  <path d="M 114,68 L 110,133" stroke-width="4"/>
  <circle cx="44" cy="96" r="15"/>
  <circle cx="40" cy="92" r="3.5" fill="#000000"/>
  <path d="M 38,82 Q 30,68 18,66" stroke-width="4"/>
  <path d="M 48,80 Q 46,66 36,58" stroke-width="4"/>
  <path d="M 86,66 Q 76,32 102,28 Q 120,26 104,62"/>
  <path d="M 110,64 Q 114,36 136,40 Q 152,44 126,70"/>
  <path d="M 152,102 L 168,108" stroke-width="4"/>
</g>
</svg>
