<svg xmlns="http://www.w3.org/2000/svg" viewBox="0 0 200 200">
<!-- TACT shape: bird_flying | category: animals | license: CC0 | source: handcrafted -->
<g fill="none" stroke="#000000" stroke-width="6" stroke-linecap="round" stroke-linejoin="round">
  <path d="M 64,104 Q 60,88 76,82 Q 90,78 104,80 L 130,84 Q 148,88 150,102 Q 151,112 140,116 L 96,118 Q 72,118 64,104 Z"/>
  <circle cx="58" cy="82" r="15"/>
  <path d="M 44,80 L 26,84 L 44,90" />
  <circle cx="54" cy="78" r="3" fill="#000000"/>
  <path d="M 98,82 Q 92,52 116,40 Q 134,32 148,38 Q 130,46 124,60 Q 118,72 120,84" />
  <path d="M 106,118 Q 112,138 130,144 Q 120,130 122,118" />
  <path d="M 140,110 L 172,102 M 142,114 L 174,116" stroke-width="5"/>
</g>
</svg>
