<svg xmlns="http://www.w3.org/2000/svg" viewBox="0 0 200 200">
<!-- TACT shape: butterfly | category: animals | license: CC0 | source: handcrafted -->
<g fill="none" stroke="#000000" stroke-width="6" stroke-linecap="round" stroke-linejoin="round">
  <ellipse cx="100" cy="106" rx="9" ry="34"/>
  <circle cx="100" cy="60" r="9"/>
  <path d="M 95,53 Q 84,36 72,32" stroke-width="4"/>
  <path d="M 105,53 Q 116,36 128,32" stroke-width="4"/>
  <path d="M 91,88 Q 52,46 28,66 Q 12,82 34,102 Q 52,118 91,106"/>
  <path d="M 109,88 Q 148,46 172,66 Q 188,82 166,102 Q 148,118 109,106"/>
  <path d="M 92,112 Q 50,118 42,144 Q 40,164 64,158 Q 84,152 94,130"/>
  <path d="M 108,112 Q 150,118 158,144 Q 160,164 136,158 Q 116,152 106,130"/>
  <circle cx="54" cy="80" r="6" stroke-width="4"/>
  <circle cx="146" cy="80" r="6" stroke-width="4"/>
</g>
</svg>
