<svg xmlns="http://www.w3.org/2000/svg" viewBox="0 0 200 200">
<!-- TACT shape: cat_standing | category: animals | license: CC0 | source: handcrafted -->
<g fill="none" stroke="#000000" stroke-width="6" stroke-linecap="round" stroke-linejoin="round">
  <path d="M 30,52 L 26,28 L 42,40 Q 52,36 62,40 L 78,28 L 74,52 Q 82,62 76,74 L 90,80 Q 122,74 148,84 Q 168,92 166,112 L 168,146 L 168,166 L 154,166 L 150,130 Q 124,138 100,130 L 96,166 L 82,166 L 80,122 Q 60,112 58,92 L 44,86 Q 28,76 30,52 Z"/>
  <circle cx="42" cy="54" r="4" fill="#000000"/>
  <circle cx="60" cy="54" r="4" fill="#000000"/>
  <path d="M 166,112 Q 186,104 188,82 Q 188,66 176,64"/>
</g>
</svg>
