<svg xmlns="http://www.w3.org/2000/svg" viewBox="0 0 200 200">
<!-- TACT shape: cow | category: animals | license: CC0 | source: handcrafted -->
<g fill="none" stroke="#000000" stroke-width="6" stroke-linecap="round" stroke-linejoin="round">
  <path d="M 20,74 Q 16,60 30,56 L 42,52 Q 48,36 64,35 Q 80,34 87,47 L 93,55 Q 128,49 154,59 Q 174,67 172,90 Q 171,104 160,112 L 162,170 L 148,170 L 144,120 Q 120,128 98,122 L 94,170 L 80,170 L 78,116 Q 62,108 58,90 L 38,84 Q 24,82 20,74 Z"/>
  <path d="M 52,36 Q 44,24 54,18"/>
  <path d="M 76,38 Q 84,24 74,18"/>
  <circle cx="43" cy="50" r="4" fill="#000000"/>
  <circle cx="24" cy="64" r="4" fill="#000000"/>
  <circle cx="34" cy="70" r="4" fill="#000000"/>
  <path d="M 168,94 L 178,140 Q 180,152 170,154"/>
  <path d="M 100,120 Q 100,136 116,136 Q 130,136 130,121" stroke-width="4"/>
</g>
</svg>
