<svg xmlns="http://www.w3.org/2000/svg" viewBox="0 0 200 200">
<!-- TACT shape: dog_standing | category: animals | license: CC0 | source: handcrafted -->
<g fill="none" stroke="#000000" stroke-width="6" stroke-linecap="round" stroke-linejoin="round">
  <path d="M 20,72 Q 16,58 30,54 L 42,50 Q 48,32 64,31 Q 80,30 87,43 L 93,51 Q 126,45 152,55 Q 172,63 170,86 Q 169,100 158,108 L 160,170 L 146,170 L 142,116 Q 118,124 96,118 L 92,170 L 78,170 L 76,112 Q 60,104 56,86 L 38,82 Q 24,80 20,72 Z"/>
  <path d="M 62,35 Q 78,39 78,58 Q 78,74 67,75 Q 57,75 56,60"/>
  <circle cx="43" cy="48" r="4" fill="#000000"/>
  <circle cx="23" cy="64" r="5" fill="#000000"/>
  <path d="M 166,74 Q 180,60 174,44 Q 170,34 160,40"/>
</g>
</svg>
