<svg xmlns="http://www.w3.org/2000/svg" viewBox="0 0 200 200">
<!-- TACT shape: dragon | category: animals | license: CC0 | source: handcrafted -->
<g fill="none" stroke="#000000" stroke-width="6" stroke-linecap="round" stroke-linejoin="round">
  <path d="M 20,62 Q 16,48 30,46 L 36,28 L 46,42 Q 60,40 66,50 L 76,58 Q 106,52 130,62 Q 152,72 150,94 Q 149,108 138,116 L 140,162 L 126,162 L 123,122 Q 106,128 90,123 L 86,162 L 72,162 L 70,116 Q 56,108 52,90 L 36,78 Q 24,74 20,62 Z"/>
  <path d="M 52,40 L 60,24"/>
  <path d="M 84,60 L 126,14 L 130,42 L 156,34 L 146,62 Q 114,52 84,60 Z"/>
  <path d="M 146,100 Q 176,108 182,130 L 192,124 L 192,140 L 178,142 Q 170,120 144,114"/>
  <circle cx="32" cy="52" r="4" fill="#000000"/>
  <path d="M 18,66 L 2,60 M 2,72 L 18,66" stroke-width="3"/>
</g>
</svg>
