<svg xmlns="http://www.w3.org/2000/svg" viewBox="0 0 200 200">
<!-- TACT shape: duck | category: animals | license: CC0 | source: handcrafted -->
<g fill="none" stroke="#000000" stroke-width="6" stroke-linecap="round" stroke-linejoin="round">
  <path d="M 24,66 L 44,58 Q 48,44 64,46 Q 80,49 78,66 Q 76,78 66,84 L 66,94 Q 96,88 126,92 L 156,78 Q 156,104 134,116 Q 100,128 66,118 Q 46,111 46,96 Q 50,88 58,86 Q 42,82 42,72 Q 42,68 24,66 Z"/>
  <circle cx="60" cy="60" r="4" fill="#000000"/>
  <path d="M 30,140 Q 50,132 70,140 Q 90,148 110,140" stroke-width="4"/>
  <path d="M 90,152 Q 110,144 130,152 Q 150,160 170,152" stroke-width="4"/>
</g>
</svg>
