<svg xmlns="http://www.w3.org/2000/svg" viewBox="0 0 200 200">
<!-- TACT shape: duck | category: animals | license: CC0 | source: handcrafted -->
<g fill="none" stroke="#000000" stroke-width="6" stroke-linecap="round" stroke-linejoin="round">
  <path d="M 58,112 Q 44,116 44,130 Q 44,150 92,152 Q 138,154 152,134 Q 160,124 168,108 L 148,114 Q 136,108 120,110 Z"/>
  <circle cx="62" cy="86" r="22"/>
  <path d="M 42,88 L 20,92 Q 30,100 44,98" />
  <circle cx="56" cy="80" r="3.5" fill="#000000"/>
  <path d="M 96,124 Q 116,116 132,126" stroke-width="4"/>
  <path d="M 32,164 Q 52,156 72,164 Q 92,172 112,164 M 120,166 Q 136,159 152,165" stroke-width="4"/>
</g>
</svg>
