<svg xmlns="http://www.w3.org/2000/svg" viewBox="0 0 200 200">
<!-- TACT shape: duck | category: animals | license: CC0 | source: parametric -->
<g fill="none" stroke="#000000" stroke-width="6" stroke-linecap="round" stroke-linejoin="round">
  <path d="M 20,152 Q 40,144 60,152 Q 80,160 100,152 Q 120,144 140,152 Q 160,160 180,152"/>
  <ellipse cx="100" cy="128" rx="55" ry="32"/>
  <circle cx="62" cy="90" r="26"/>
  <path d="M 36,92 L 16,96 L 36,100 Q 42,100 48,96 Q 42,92 36,92 Z"/>
  <path d="M 66,124 Q 90,114 130,120 Q 148,124 152,134"/>
  <path d="M 152,130 Q 162,118 158,108"/>
  <circle cx="58" cy="84" r="6"/>
  <circle cx="58" cy="84" r="2" stroke-width="4"/>
</g>
</svg>
