<svg xmlns="http://www.w3.org/2000/svg" viewBox="0 0 200 200">
<!-- TACT shape: elephant | category: animals | license: CC0 | source: parametric -->
<g fill="none" stroke="#000000" stroke-width="6" stroke-linecap="round" stroke-linejoin="round">
  <ellipse cx="112" cy="128" rx="60" ry="46"/>
  <circle cx="62" cy="88" r="40"/>
  <path d="M 26,64 Q 8,68 6,100 Q 8,132 28,134 Q 44,128 44,100 Q 44,70 26,64"/>
  <path d="M 38,108 Q 18,120 16,144 Q 14,162 28,164 Q 42,164 40,150 Q 38,136 48,128"/>
  <path d="M 68,168 L 64,196"/>
  <path d="M 90,172 L 88,196"/>
  <path d="M 130,172 L 128,196"/>
  <path d="M 154,168 L 158,196"/>
  <path d="M 170,138 Q 184,130 182,118"/>
  <circle cx="54" cy="80" r="8"/>
  <circle cx="54" cy="80" r="3" stroke-width="4"/>
</g>
</svg>
