<svg xmlns="http://www.w3.org/2000/svg" viewBox="0 0 200 200">
<!-- TACT shape: fox | category: animals | license: CC0 | source: handcrafted -->
<g fill="none" stroke="#000000" stroke-width="6" stroke-linecap="round" stroke-linejoin="round">
  <path d="M 34,84 L 56,80 L 62,58 L 78,74 Q 96,68 114,74 Q 144,74 158,88 Q 168,98 168,112 L 168,120 Q 168,128 160,130 L 160,152 L 144,152 L 144,132 L 108,132 L 108,152 L 92,152 L 92,130 Q 74,128 66,114 Q 56,112 46,104 Q 36,96 34,84 Z"/>
  <circle cx="56" cy="86" r="4" fill="#000000"/>
  <path d="M 34,90 Q 40,96 50,98" stroke-width="4"/>
  <path d="M 168,116 Q 190,112 192,90 Q 193,74 180,68 Q 186,82 176,92 Q 166,100 162,110" />
  <path d="M 92,76 L 100,58 L 114,74" />
</g>
</svg>
