<svg xmlns="http://www.w3.org/2000/svg" viewBox="0 0 200 200">
<!-- TACT shape: fox | category: animals | license: CC0 | source: handcrafted -->
<g fill="none" stroke="#000000" stroke-width="6" stroke-linecap="round" stroke-linejoin="round">
  <path d="M 58,50 L 46,16 L 74,38 Q 88,32 102,38 L 130,16 L 118,50 Q 130,62 124,76 Q 116,94 88,102 Q 60,94 52,76 Q 46,62 58,50 Z"/>
  <path d="M 74,100 Q 56,116 50,144 Q 44,168 60,178 L 114,178 Q 130,168 124,142 Q 118,114 102,100"/>
  <path d="M 114,178 Q 148,180 160,152 Q 168,130 154,116 Q 142,106 136,120 Q 148,132 142,146 Q 136,160 120,160"/>
  <circle cx="72" cy="62" r="4" fill="#000000"/>
  <circle cx="104" cy="62" r="4" fill="#000000"/>
  <circle cx="88" cy="84" r="4" fill="#000000"/>
</g>
</svg>
