<svg xmlns="http://www.w3.org/2000/svg" viewBox="0 0 200 200">
<!-- TACT shape: frog | category: animals | license: CC0 | source: handcrafted -->
<g fill="none" stroke="#000000" stroke-width="6" stroke-linecap="round" stroke-linejoin="round">
  <path d="M 48,112 Q 42,86 64,76 Q 58,58 72,54 Q 84,51 88,62 Q 100,58 112,62 Q 116,51 128,54 Q 142,58 136,76 Q 158,86 152,112 Q 146,136 100,136 Q 54,136 48,112 Z"/>
  <circle cx="76" cy="64" r="4" fill="#000000"/>
  <circle cx="124" cy="64" r="4" fill="#000000"/>
  <path d="M 80,92 Q 100,104 120,92"/>
  <path d="M 50,116 Q 26,118 26,134 Q 27,144 42,142 L 56,136"/>
  <path d="M 150,116 Q 174,118 174,134 Q 173,144 158,142 L 144,136"/>
</g>
</svg>
