<svg xmlns="http://www.w3.org/2000/svg" viewBox="0 0 200 200">
<!-- TACT shape: horse | category: animals | license: CC0 | source: handcrafted -->
<g fill="none" stroke="#000000" stroke-width="6" stroke-linecap="round" stroke-linejoin="round">
  <path d="M 18,52 Q 14,42 26,38 L 34,22 L 44,34 Q 56,32 60,44 L 96,80 Q 128,74 152,84 Q 172,92 170,112 Q 169,126 158,132 L 160,170 L 146,170 L 143,138 Q 118,146 96,140 L 92,170 L 78,170 L 76,132 Q 62,122 60,104 L 42,66 Q 26,62 18,52 Z"/>
  <path d="M 58,46 Q 70,58 80,68 Q 88,76 94,82" stroke-width="4"/>
  <circle cx="36" cy="42" r="4" fill="#000000"/>
  <path d="M 168,108 Q 186,116 182,150 Q 180,162 172,164"/>
</g>
</svg>
