<svg xmlns="http://www.w3.org/2000/svg" viewBox="0 0 200 200">
<!-- TACT shape: horse | category: animals | license: CC0 | source: parametric -->
<g fill="none" stroke="#000000" stroke-width="6" stroke-linecap="round" stroke-linejoin="round">
  <ellipse cx="112" cy="126" rx="58" ry="34"/>
  <path d="M 68,108 Q 60,80 72,60"/>
  <path d="M 88,100 Q 82,76 90,56"/>
  <ellipse cx="84" cy="50" rx="24" ry="18"/>
  <ellipse cx="70" cy="62" rx="14" ry="10"/>
  <path d="M 72,36 Q 68,28 76,24 Q 82,30 80,38"/>
  <path d="M 84,32 Q 82,22 90,20 Q 96,26 92,34"/>
  <path d="M 72,156 L 68,194"/>
  <path d="M 92,160 L 90,194"/>
  <path d="M 126,160 L 124,194"/>
  <path d="M 152,156 L 156,194"/>
  <path d="M 168,120 Q 185,106 188,88 Q 186,76 178,80"/>
  <path d="M 168,124 Q 186,114 190,100"/>
  <ellipse cx="64" cy="64" rx="4" ry="3"/>
  <circle cx="88" cy="44" r="5" stroke-width="4"/>
</g>
</svg>
