<svg xmlns="http://www.w3.org/2000/svg" viewBox="0 0 200 200">
<!-- TACT shape: ladybug | category: animals | license: CC0 | source: handcrafted -->
<g fill="none" stroke="#000000" stroke-width="6" stroke-linecap="round" stroke-linejoin="round">
  <path d="M 40,120 Q 40,68 100,64 Q 160,68 160,120 Q 160,160 100,162 Q 40,160 40,120 Z"/>
  <path d="M 100,64 L 100,162"/>
  <path d="M 70,56 Q 100,40 130,56 Q 132,76 100,80 Q 68,76 70,56 Z"/>
  <circle cx="82" cy="62" r="3.5" fill="#000000"/>
  <circle cx="118" cy="62" r="3.5" fill="#000000"/>
  <circle cx="68" cy="104" r="7" fill="#000000"/>
  <circle cx="132" cy="104" r="7" fill="#000000"/>
  <circle cx="74" cy="138" r="7" fill="#000000"/>
  <circle cx="126" cy="138" r="7" fill="#000000"/>
  <path d="M 80,44 Q 72,28 60,24"/>
  <path d="M 120,44 Q 128,28 140,24"/>
</g>
</svg>
