<svg xmlns="http://www.w3.org/2000/svg" viewBox="0 0 200 200">
<!-- TACT shape: monkey | category: animals | license: CC0 | source: handcrafted -->
<g fill="none" stroke="#000000" stroke-width="6" stroke-linecap="round" stroke-linejoin="round">
  <circle cx="68" cy="70" r="18"/>
  <circle cx="132" cy="70" r="18"/>
  <circle cx="100" cy="72" r="34"/>
  <path d="M 78,80 Q 100,98 122,80 Q 122,58 100,58 Q 78,58 78,80 Z"/>
  <circle cx="90" cy="68" r="3.5" fill="#000000"/>
  <circle cx="110" cy="68" r="3.5" fill="#000000"/>
  <path d="M 92,84 Q 100,90 108,84"/>
  <ellipse cx="100" cy="140" rx="34" ry="38"/>
  <path d="M 74,118 Q 56,128 58,150 M 126,118 Q 144,128 142,150"/>
  <path d="M 82,176 L 82,188 M 118,176 L 118,188"/>
  <path d="M 134,150 Q 172,150 172,110 Q 172,90 154,100"/>
</g>
</svg>
