<svg xmlns="http://www.w3.org/2000/svg" viewBox="0 0 200 200">
<!-- TACT shape: owl | category: animals | license: CC0 | source: parametric -->
<g fill="none" stroke="#000000" stroke-width="6" stroke-linecap="round" stroke-linejoin="round">
  <ellipse cx="100" cy="135" rx="46" ry="50"/>
  <ellipse cx="100" cy="72" rx="44" ry="40"/>
  <path d="M 68,40 L 60,18 L 80,36"/>
  <path d="M 132,40 L 140,18 L 120,36"/>
  <circle cx="82" cy="72" r="18"/>
  <circle cx="118" cy="72" r="18"/>
  <circle cx="82" cy="72" r="8"/>
  <circle cx="118" cy="72" r="8"/>
  <path d="M 93,88 L 100,100 L 107,88 Z"/>
  <path d="M 56,120 Q 50,148 58,175"/>
  <path d="M 144,120 Q 150,148 142,175"/>
  <path d="M 84,180 L 74,194 M 84,180 L 84,194 M 84,180 L 94,194"/>
  <path d="M 116,180 L 106,194 M 116,180 L 116,194 M 116,180 L 126,194"/>
</g>
</svg>
