<svg xmlns="http://www.w3.org/2000/svg" viewBox="0 0 200 200">
<!-- TACT shape: owl | category: animals | license: CC0 | source: handcrafted -->
<g fill="none" stroke="#000000" stroke-width="6" stroke-linecap="round" stroke-linejoin="round">
  <path d="M 58,44 L 52,24 L 70,34 Q 100,24 130,34 L 148,24 L 142,44 Q 154,62 152,92 Q 150,132 128,152 Q 114,162 100,162 Q 86,162 72,152 Q 50,132 48,92 Q 46,62 58,44 Z"/>
  <circle cx="80" cy="76" r="15"/>
  <circle cx="120" cy="76" r="15"/>
  <circle cx="80" cy="76" r="5" fill="#000000"/>
  <circle cx="120" cy="76" r="5" fill="#000000"/>
  <path d="M 94,90 L 100,100 L 106,90"/>
  <path d="M 62,104 Q 58,126 70,142" stroke-width="4"/>
  <path d="M 138,104 Q 142,126 130,142" stroke-width="4"/>
  <path d="M 88,162 L 88,172 M 96,162 L 96,172 M 104,162 L 104,172 M 112,162 L 112,172" stroke-width="4"/>
</g>
</svg>
