<svg xmlns="http://www.w3.org/2000/svg" viewBox="0 0 200 200">
<!-- TACT shape: snail | category: animals | license: CC0 | source: handcrafted -->
<g fill="none" stroke="#000000" stroke-width="6" stroke-linecap="round" stroke-linejoin="round">
  <path d="M 40,150 Q 36,120 60,120 L 150,120 Q 170,120 170,138 Q 170,156 150,156 L 70,156"/>
  <path d="M 60,156 Q 30,156 30,124 Q 30,70 84,70 Q 134,70 134,116 Q 134,150 100,150 Q 74,150 74,124 Q 74,104 92,104 Q 106,104 106,120"/>
  <path d="M 150,120 L 158,96"/>
  <path d="M 168,128 L 178,108"/>
  <circle cx="158" cy="94" r="4" fill="#000000"/>
  <circle cx="179" cy="106" r="4" fill="#000000"/>
</g>
</svg>
