<svg xmlns="http://www.w3.org/2000/svg" viewBox="0 0 200 200">
<!-- TACT shape: squirrel | category: animals | license: CC0 | source: handcrafted -->
<g fill="none" stroke="#000000" stroke-width="6" stroke-linecap="round" stroke-linejoin="round">
  <path d="M 52,74 L 46,50 L 64,58 Q 78,52 88,62 Q 96,72 92,84 Q 104,92 110,110 Q 118,134 108,154 Q 100,166 84,166 L 56,166 Q 40,158 44,136 Q 48,114 62,104 Q 48,96 48,86 Q 48,78 52,74 Z"/>
  <path d="M 108,154 Q 146,160 158,126 Q 168,96 148,72 Q 132,54 116,64 Q 104,72 114,84 Q 128,78 138,94 Q 150,114 138,134 Q 130,148 112,146" />
  <circle cx="62" cy="70" r="4" fill="#000000"/>
  <circle cx="49" cy="63" r="3.5" fill="#000000"/>
  <path d="M 74,112 Q 84,118 82,128" stroke-width="4"/>
</g>
</svg>
