<svg xmlns="http://www.w3.org/2000/svg" viewBox="0 0 200 200">
<!-- TACT shape: swan | category: animals | license: CC0 | source: handcrafted -->
<g fill="none" stroke="#000000" stroke-width="6" stroke-linecap="round" stroke-linejoin="round">
  <path d="M 26,40 L 42,32 Q 54,28 56,38 Q 57,46 50,52 Q 42,60 44,74 Q 46,86 60,92 Q 96,86 128,92 L 158,78 Q 158,104 134,116 Q 100,128 66,118 Q 46,110 46,96 Q 38,90 36,76 Q 34,60 42,50 Q 32,46 26,40 Z"/>
  <circle cx="46" cy="38" r="3.5" fill="#000000"/>
  <path d="M 36,142 Q 56,134 76,142 Q 96,150 116,142" stroke-width="4"/>
</g>
</svg>
