<svg xmlns="http://www.w3.org/2000/svg" viewBox="0 0 200 200">
<!-- TACT shape: swan | category: animals | license: CC0 | source: handcrafted -->
<g fill="none" stroke="#000000" stroke-width="6" stroke-linecap="round" stroke-linejoin="round">
  <path d="M 70,150 Q 40,150 44,118 Q 50,80 80,72 Q 60,60 64,44 Q 70,28 88,30 Q 104,34 104,52"/>
  <path d="M 104,52 L 124,58"/>
  <circle cx="92" cy="42" r="3.5" fill="#000000"/>
  <path d="M 70,150 Q 110,168 156,150 Q 176,142 168,120 Q 150,128 132,120 Q 110,150 84,140"/>
  <path d="M 96,108 Q 120,118 144,110"/>
  <path d="M 36,164 Q 60,156 84,164 T 132,164 T 180,164" stroke-width="4" opacity="0.7"/>
</g>
</svg>
