<svg xmlns="http://www.w3.org/2000/svg" viewBox="0 0 200 200">
<!-- TACT shape: swan | category: animals | license: CC0 | source: handcrafted -->
<g fill="none" stroke="#000000" stroke-width="6" stroke-linecap="round" stroke-linejoin="round">
  <path d="M 68,110 Q 52,114 50,128 Q 50,146 96,148 Q 138,150 152,132 Q 160,122 158,112 Q 156,104 144,104 L 84,106 Q 74,107 68,110 Z"/>
  <path d="M 74,110 Q 52,102 50,78 Q 50,56 68,52 Q 84,49 85,63 Q 86,74 77,82 Q 70,88 70,98 Q 70,106 74,110" stroke-width="8"/>
  <path d="M 86,58 L 102,64 L 86,69 Z" fill="#000000" stroke-width="3"/>
  <circle cx="70" cy="58" r="3" fill="#000000"/>
  <path d="M 94,108 Q 114,98 124,86" stroke-width="4"/>
  <path d="M 40,160 Q 60,152 80,160 Q 100,168 120,160 M 128,162 Q 144,155 160,161" stroke-width="4"/>
</g>
</svg>
