<svg xmlns="http://www.w3.org/2000/svg" viewBox="0 0 200 200">
<!-- TACT shape: turtle | category: animals | license: CC0 | source: parametric -->
<g fill="none" stroke="#000000" stroke-width="6" stroke-linecap="round" stroke-linejoin="round">
  <ellipse cx="100" cy="106" rx="60" ry="46"/>
  <ellipse cx="100" cy="98" rx="22" ry="18"/>
  <ellipse cx="70" cy="90" rx="14" ry="12"/>
  <ellipse cx="130" cy="90" rx="14" ry="12"/>
  <ellipse cx="68" cy="114" rx="14" ry="12"/>
  <ellipse cx="132" cy="114" rx="14" ry="12"/>
  <ellipse cx="84" cy="124" rx="14" ry="10"/>
  <ellipse cx="116" cy="124" rx="14" ry="10"/>
  <ellipse cx="50" cy="90" rx="22" ry="16"/>
  <circle cx="42" cy="84" r="5"/>
  <path d="M 32,92 Q 28,88 32,84"/>
  <path d="M 48,108 Q 22,110 14,126 Q 18,138 30,132"/>
  <path d="M 76,144 Q 68,162 54,168 Q 42,164 46,152"/>
  <path d="M 152,108 Q 178,110 186,126 Q 182,138 170,132"/>
  <path d="M 124,144 Q 132,162 146,168 Q 158,164 154,152"/>
  <path d="M 158,118 Q 170,112 172,100"/>
</g>
</svg>
