<svg xmlns="http://www.w3.org/2000/svg" viewBox="0 0 200 200">
<!-- TACT shape: unicorn | category: animals | license: CC0 | source: handcrafted -->
<g fill="none" stroke="#000000" stroke-width="6" stroke-linecap="round" stroke-linejoin="round">
  <path d="M 18,58 Q 14,48 26,44 L 34,28 L 44,40 Q 56,38 60,50 L 96,84 Q 128,78 152,88 Q 172,96 170,116 Q 169,130 158,136 L 160,170 L 146,170 L 143,142 Q 118,150 96,144 L 92,170 L 78,170 L 76,136 Q 62,126 60,108 L 42,70 Q 26,66 18,58 Z"/>
  <path d="M 32,26 L 18,2"/>
  <path d="M 58,52 Q 70,62 80,72 Q 88,80 94,84" stroke-width="4"/>
  <circle cx="34" cy="46" r="4" fill="#000000"/>
  <path d="M 168,112 Q 190,120 186,150 Q 184,162 174,164"/>
</g>
</svg>
