<svg xmlns="http://www.w3.org/2000/svg" viewBox="0 0 200 200">
<!-- TACT shape: unicorn | category: animals | license: CC0 | source: handcrafted -->
<g fill="none" stroke="#000000" stroke-width="6" stroke-linecap="round" stroke-linejoin="round">
  <path d="M 96,40 L 110,12 L 118,42"/>
  <path d="M 86,56 Q 78,76 86,96 L 96,140 Q 100,150 116,150 L 150,150 Q 168,150 168,132 L 168,108"/>
  <path d="M 96,140 L 96,176 M 150,150 L 150,184"/>
  <path d="M 116,150 L 116,178 M 168,132 L 168,176"/>
  <path d="M 86,56 Q 100,44 120,48 Q 140,52 148,72 Q 156,92 168,108"/>
  <path d="M 120,48 Q 138,36 150,42 Q 142,54 134,58"/>
  <path d="M 132,62 Q 152,50 166,58 Q 154,72 142,74"/>
  <circle cx="104" cy="78" r="4.5" fill="#000000"/>
  <path d="M 168,150 Q 188,140 186,108 Q 184,90 170,100"/>
</g>
</svg>
