<svg xmlns="http://www.w3.org/2000/svg" viewBox="0 0 200 200">
<!-- TACT shape: wolf | category: animals | license: CC0 | source: handcrafted -->
<g fill="none" stroke="#000000" stroke-width="6" stroke-linecap="round" stroke-linejoin="round">
  <path d="M 16,60 Q 24,52 36,52 L 40,30 L 52,44 Q 64,42 70,50 L 80,56 Q 116,50 144,60 Q 166,68 164,90 Q 163,104 152,112 L 154,168 L 140,168 L 136,118 Q 114,126 92,120 L 88,168 L 74,168 L 72,114 Q 56,106 52,88 L 34,74 Q 22,70 16,60 Z"/>
  <circle cx="42" cy="52" r="4" fill="#000000"/>
  <circle cx="19" cy="60" r="4" fill="#000000"/>
  <path d="M 160,98 Q 184,104 184,130 Q 182,148 166,146"/>
</g>
</svg>
