<svg xmlns="http://www.w3.org/2000/svg" viewBox="0 0 200 200">
<!-- TACT shape: bridge | category: buildings | license: CC0 | source: handcrafted -->
<g fill="none" stroke="#000000" stroke-width="6" stroke-linecap="round" stroke-linejoin="round">
  <path d="M 12,90 L 188,90"/>
  <path d="M 12,122 L 40,122 Q 44,92 72,86 Q 100,80 122,94 Q 138,104 140,122 L 188,122"/>
  <path d="M 40,122 Q 50,100 74,96 Q 104,92 122,104 Q 136,112 140,122" stroke-width="0"/>
  <path d="M 12,66 L 12,90 M 56,58 L 56,90 M 100,54 L 100,90 M 144,58 L 144,90 M 188,66 L 188,90" stroke-width="4"/>
  <path d="M 12,66 Q 100,38 188,66" stroke-width="4"/>
  <path d="M 20,144 Q 40,136 60,144 Q 80,152 100,144 Q 120,136 140,144 Q 160,152 180,144" stroke-width="4"/>
</g>
</svg>
