<svg xmlns="http://www.w3.org/2000/svg" viewBox="0 0 200 200">
<!-- TACT shape: house_simple | category: buildings | license: CC0 | source: handcrafted -->
<g fill="none" stroke="#000000" stroke-width="6" stroke-linecap="round" stroke-linejoin="round">
  <path d="M 28,96 L 100,32 L 172,96"/>
  <path d="M 44,96 L 44,168 L 156,168 L 156,96"/>
  <path d="M 132,58 L 132,38 L 148,38 L 148,72"/>
  <path d="M 86,168 L 86,120 L 114,120 L 114,168"/>
  <rect x="58" y="112" width="0" height="0"/>
  <path d="M 56,112 L 76,112 L 76,132 L 56,132 Z M 66,112 L 66,132 M 56,122 L 76,122" stroke-width="4"/>
  <path d="M 124,112 L 144,112 L 144,132 L 124,132 Z M 134,112 L 134,132 M 124,122 L 144,122" stroke-width="4"/>
</g>
</svg>
