<svg xmlns="http://www.w3.org/2000/svg" viewBox="0 0 200 200">
<!-- TACT shape: lighthouse | category: buildings | license: CC0 | source: handcrafted -->
<g fill="none" stroke="#000000" stroke-width="6" stroke-linecap="round" stroke-linejoin="round">
  <path d="M 74,168 L 82,68 L 118,68 L 126,168 Z"/>
  <path d="M 84,52 L 116,52 L 116,68 L 84,68 Z"/>
  <path d="M 88,52 L 88,36 L 112,36 L 112,52" stroke-width="4"/>
  <path d="M 84,28 L 116,28 L 100,14 Z" stroke-width="4"/>
  <path d="M 80,96 L 120,96 M 78,124 L 122,124 M 76,150 L 124,150" stroke-width="4"/>
  <path d="M 68,40 L 48,32 M 68,52 L 50,56 M 132,40 L 152,32 M 132,52 L 150,56" stroke-width="4"/>
  <path d="M 52,168 L 148,168"/>
  <path d="M 30,180 Q 50,172 70,180 Q 90,188 110,180" stroke-width="4"/>
</g>
</svg>
