<svg xmlns="http://www.w3.org/2000/svg" viewBox="0 0 200 200">
<!-- TACT shape: airplane | category: vehicles | license: CC0 | source: parametric -->
<g fill="none" stroke="#000000" stroke-width="6" stroke-linecap="round" stroke-linejoin="round">
  <path d="M 22,100 Q 22,88 38,84 L 168,88 Q 186,90 186,100 Q 186,110 168,112 L 38,116 Q 22,112 22,100 Z"/>
  <path d="M 90,88 L 68,42 L 56,42 L 80,88"/>
  <path d="M 110,88 L 132,42 L 144,42 L 120,88"/>
  <path d="M 162,88 L 158,58 L 172,72 L 172,88"/>
  <path d="M 162,102 L 148,122 L 152,122 L 165,110"/>
  <path d="M 162,98 L 148,78 L 152,78 L 165,90"/>
  <ellipse cx="88" cy="90" rx="14" ry="6"/>
  <ellipse cx="112" cy="90" rx="14" ry="6"/>
  <path d="M 22,100 L 8,100"/>
</g>
</svg>
