<svg xmlns="http://www.w3.org/2000/svg" viewBox="0 0 200 200">
<!-- TACT shape: train_simple | category: vehicles | license: CC0 | source: parametric -->
<g fill="none" stroke="#000000" stroke-width="6" stroke-linecap="round" stroke-linejoin="round">
  <circle cx="44" cy="162" r="20"/>
  <circle cx="90" cy="162" r="20"/>
  <circle cx="140" cy="162" r="20"/>
  <path d="M 18,142 L 180,142"/>
  <path d="M 30,90 L 150,90 Q 158,90 158,100 L 158,142 Q 158,142 30,142 Q 22,142 22,132 L 22,100 Q 22,90 30,90 Z"/>
  <path d="M 80,90 Q 80,72 100,70 Q 120,72 120,90"/>
  <path d="M 150,94 L 178,94 L 178,142 L 150,142"/>
  <path d="M 50,90 L 50,60 Q 50,52 58,52 Q 66,52 66,60 L 66,90"/>
  <path d="M 18,90 L 30,90 L 30,68 L 18,68 Z"/>
  <rect x="20" y="72" width="8" height="10" rx="2"/>
  <line x1="8" y1="130" x2="22" y2="130"/>
</g>
</svg>
